<?xml version="1.0" encoding="utf-8"?>
<!-- Generator: Adobe Illustrator 17.1.0, SVG Export Plug-In . SVG Version: 6.00 Build 0)  -->
<!DOCTYPE svg PUBLIC "-//W3C//DTD SVG 1.1 Basic//EN" "http://www.w3.org/Graphics/SVG/1.1/DTD/svg11-basic.dtd">
<svg version="1.1" baseProfile="basic" id="Arrow_1_"
	 xmlns="http://www.w3.org/2000/svg" xmlns:xlink="http://www.w3.org/1999/xlink" x="0px" y="0px" width="500px" height="500px"
	 viewBox="0 0 500 500" xml:space="preserve">
  <metadata>
    <?xpacket begin="﻿" id="W5M0MpCehiHzreSzNTczkc9d"?>
    <x:xmpmeta xmlns:x="adobe:ns:meta/" x:xmptk="Adobe XMP Core 5.6-c011 79.156380, 2014/06/19-23:40:37        ">
     <rdf:RDF xmlns:rdf="http://www.w3.org/1999/02/22-rdf-syntax-ns#">
      <rdf:Description rdf:about=""
        xmlns:xmpMM="http://ns.adobe.com/xap/1.0/mm/"
        xmlns:stEvt="http://ns.adobe.com/xap/1.0/sType/ResourceEvent#"
        xmlns:stRef="http://ns.adobe.com/xap/1.0/sType/ResourceRef#"
        xmlns:xmp="http://ns.adobe.com/xap/1.0/"
        xmlns:xmpRights="http://ns.adobe.com/xap/1.0/rights/"
        xmlns:dc="http://purl.org/dc/elements/1.1/"
       xmpMM:DocumentID="xmp.did:f64fa4cef1cda413c20a39a8d0d4bd5d"
       xmpMM:OriginalDocumentID="xmp.did:b4e605eed0526b7c68cc50b292db39e2"
       xmpMM:InstanceID="xmp.iid:f64fa4cef1cda413c20a39a8d0d4bd5d"
       xmp:ModifyDate="2015-04-10T12:54:10+02:00"
       xmp:MetadataDate="2015-04-10T12:54:10+02:00"
       xmpRights:Marked="True"
       xmpRights:WebStatement="http://www.adobe.com/legal/general-terms.html">
       <xmpMM:History>
        <rdf:Seq>
         <rdf:li
          stEvt:action="saved"
          stEvt:instanceID="xmp.iid:b4e605eed0526b7c68cc50b292db39e2"
          stEvt:when="2015-04-10T12:42:21+02:00"/>
         <rdf:li
          stEvt:action="copied"
          stEvt:instanceID="xmp.iid:f64fa4cef1cda413c20a39a8d0d4bd5d"
          stEvt:when="2015-04-10T12:54:10+02:00"/>
        </rdf:Seq>
       </xmpMM:History>
       <xmpMM:DerivedFrom
        stRef:documentID="xmp.did:b4e605eed0526b7c68cc50b292db39e2"
        stRef:originalDocumentID="xmp.did:b4e605eed0526b7c68cc50b292db39e2"
        stRef:instanceID="xmp.iid:b4e605eed0526b7c68cc50b292db39e2"
        stRef:lastModifyDate="2015-04-10T12:42:21+02:00"/>
       <xmpRights:UsageTerms>
        <rdf:Alt>
         <rdf:li xml:lang="x-default">This work is licensed under the Adobe General Terms of Use http://www.adobe.com/legal/general-terms.html.</rdf:li>
        </rdf:Alt>
       </xmpRights:UsageTerms>
       <dc:publisher>
        <rdf:Bag>
         <rdf:li>Adobe Systems Incorporated</rdf:li>
        </rdf:Bag>
       </dc:publisher>
      </rdf:Description>
     </rdf:RDF>
    </x:xmpmeta>
    <?xpacket end="r"?>
  </metadata>
<g>
	<polygon fill="none" points="21.4,137.9 21.4,361.1 143.5,238.9 	"/>
	<path fill="none" d="M252.4,318.2l-0.3,0.3c-0.3,0.3-1,0.3-1.4,0.7c-0.3,0-0.3,0.3-0.7,0.3c-0.3,0-1,0.3-1.4,0.3
		c-0.3,0-0.3,0-0.7,0c-0.7,0.3-1.4,0.3-2,0.3c-0.7,0-1.4-0.3-2-0.3c-0.3,0-0.3,0-0.7,0c-0.3,0-1,0-1.4-0.3c-0.3,0-0.3-0.3-0.7-0.3
		c-0.7,0-1-0.3-1.4-0.7l-0.3-0.3l-80.3-66.3L35.7,375h427.9L337.8,249.1L252.4,318.2z"/>
	<path fill="none" d="M166,230.8l0.3,0.3l79.9,66l84-67.7c0.3-0.7,0.7-1,1-1.4c0.7-0.7,2-1.7,3.1-2l125.5-101.4H37.7l126.2,104.4
		C164.6,229.8,165.3,230.1,166,230.8z"/>
	<polygon fill="none" points="478.2,360.7 478.2,360.7 478.2,135.9 353.8,236.2 	"/>
	<path d="M498.7,112.1c0-0.3-0.3-0.7-0.3-1c0-0.3-0.3-0.7-0.3-1s-0.3-0.7-0.3-0.7c-0.3-0.3-0.3-0.7-0.7-1c0,0,0-0.3-0.3-0.3
		l-0.3-0.3c-0.3-0.3-0.3-0.7-0.7-0.7c-0.3-0.3-0.3-0.3-0.7-0.7c-0.3-0.3-0.7-0.3-0.7-0.7c-0.3-0.3-0.7-0.3-1-0.3
		c-0.3,0-0.7-0.3-1-0.3c-0.3,0-0.7-0.3-1-0.3c-0.3,0-0.7,0-1-0.3c-0.3,0-0.7,0-1,0c-0.3,0-0.3,0-0.7,0H11.2
		c-5.8,0-10.2,4.4-10.2,10.2v270.8c0,0.7,0,1.4,0.3,2c0,0.3,0.3,0.7,0.3,1c0,0.3,0.3,0.7,0.3,1c0,0.3,0.3,0.7,0.7,1
		c0,0.3,0.3,0.3,0.3,0.7c0.7,1,1.7,2,2.7,2.7c0.3,0,0.3,0.3,0.7,0.3c0.3,0.3,0.7,0.3,1,0.7c0.3,0,0.7,0.3,1,0.3c0.3,0,0.7,0.3,1,0.3
		c0.7,0,1.4,0.3,2,0.3h477.2c0.7,0,1.4,0,2-0.3c0.3,0,0.7-0.3,1-0.3c0.3,0,0.7-0.3,1-0.3c0.3,0,0.7-0.3,1-0.7c0.3,0,0.3-0.3,0.7-0.3
		c1-0.7,2-1.7,2.7-2.7c0-0.3,0.3-0.3,0.3-0.7c0-0.3,0.3-0.7,0.3-1c0-0.3,0.3-0.7,0.3-1s0.3-0.7,0.3-1c0-0.7,0.3-1.4,0.3-2V114.4
		v-0.3c0-0.3,0-0.7,0-1S499,112.4,498.7,112.1z M459.9,124.6L334.4,226c-1,0.3-2.4,1.4-3.1,2c-0.3,0.3-0.7,0.7-1,1.4l-84,67.7
		l-79.9-66l-0.3-0.3c-0.7-0.7-1.4-1-2-1.7L37.7,124.6H459.9z M21.4,137.9l122.1,101L21.4,361.1V137.9z M35.7,375l123.5-123.1
		l80.3,66.3l0.3,0.3c0.3,0.3,0.7,0.7,1.4,0.7c0.3,0,0.3,0.3,0.7,0.3c0.3,0.3,1,0.3,1.4,0.3c0.3,0,0.3,0,0.7,0c0.7,0,1.4,0.3,2,0.3
		c0.7,0,1.4,0,2-0.3c0.3,0,0.3,0,0.7,0c0.3,0,1-0.3,1.4-0.3c0.3,0,0.3-0.3,0.7-0.3c0.3-0.3,1-0.3,1.4-0.7l0.3-0.3l85.4-69.1
		L463.6,375H35.7z M478.2,360.7L478.2,360.7L353.8,236.2l124.5-100.3V360.7z"/>
</g>
</svg>
