<?xml version="1.0" encoding="utf-8"?>
<!-- Generator: Adobe Illustrator 18.1.1, SVG Export Plug-In . SVG Version: 6.00 Build 0)  -->
<svg version="1.1" id="Layer_1" xmlns="http://www.w3.org/2000/svg" xmlns:xlink="http://www.w3.org/1999/xlink" x="0px" y="0px"
	 viewBox="0 0 500 450" enable-background="new 0 0 500 450" xml:space="preserve">
<path fill-rule="evenodd" clip-rule="evenodd" fill="#231F20" d="M257.6,31c-4.3,11.3-4.2,42.7-7.2,57.3c-0.3,1.5-0.8,3.1-0.8,4.6
	c0,3.1-4,2.7-6.4,3.2c-16.7,3.1-33.2,7.1-49.5,11.8c-2.4,0.7-21.3,6-23.1,5.6c-3.3-0.7-14.3,2.2-15.2,5.6c-0.7,2.5-2.3,5.3-3.4,7.6
	c-5.8,11.9-9.7,23.3-13.2,36.1c-3.8,13.6-6.2,27.9-10.4,41.3c-2.9,1.9-49.1-1.4-55.2,0.8c-8.7,3.3,1.3,11.4-11.4,13
	c-1.5,0.2-3.6,0.1-4.8,1.1c-2.5,1.9-1.9,14.9-2,17.8c-0.2,6-0.3,11.1,0.6,17c0.9,5.3-0.2,5.8,4.4,8.4c6.6,3.8,13.3,7.8,19.7,12
	c-5.5,2.3-11.5,3.7-17.1,5.8c-15.5,5.8-31.4,10.2-47.1,15.4c-1.5,0.5-4.8,3.6-6.2,6.4c-5.3,11-6.9,34.4-2.2,38.9
	c1.5,1.5,24.7,5.7,27.9,6.2c25.6,3.8,63.9-19.1,87.6-28.4c-1.2,10.7-3.5,20.6-1.4,31.5c1.2,6.5,1.3,6.3,7.4,8.4
	c13.4,4.6,25.6,6.8,39.7,8.2c8.3,0.8,12.2,2.9,18.8-2.2c5.3-4.1,11.1-7.4,16.9-10.8c19-11.2,37.6-24.7,54.7-38.7
	c1.6-1.2,3.1-2.5,4.8-3.6c-0.4,3-1.5,6.1-2.4,9c-4,12.7,1.7,23.3,4.8,35.7c-0.6,0.6-1.5,0.9-2.2,1.2c-1.1,0.5-2,1-3,1.6
	c-2.9,1.9-9.3-3.3-11.2-5.2c-7-6.8-12.1-2.9-17.8,3.2c-1.7,1.9-3.6,3.1-3.6,5.8c0,2.3,0.2,4.3-2.6,4c-6.1-0.7-9,7.9-13.8,5.8
	c-4.2-1.8-9-1.9-12.6,1.2c-4.4,3.7-12.1-1.4-14,5c-0.7,2.4-2.5,3.7-4.2,5.4c-1.3,1.2-2.7,2.5-3.7,4c0,0-0.7,1-0.1,1
	c0.9,0,8.1-3.7,9-4.4c4.8-3.7,4.3-4.4,10-1.8c4.6,2,5.4,2.8,9.4-0.4c0.6-0.5,1.8-1.4,2.5-1.8c0.2-0.1,1.4-0.7,1.1,0
	c1,0.9,1.9,1.9,3,2.8c9.6,7.7-10.4,3.6-14.6,7c-3,2.4,1.8,2.1,3.4,2.2c4.6,0.4,8.3,1.1,12.6,2.6c2.4,0.8,2.6-0.4,4.2-2
	c5-5.1,7.4-1.9,10.4,3c2.4,3.8,5.4,7.6,8.4,11c1.3,1.5,1.2,1.9,3,1.2c5.9-2.1,11.3-4.6,16.8-7.6c4.5-2.5,7.5,3.2,11.6,3.8
	c2.9,0.4,20-7,23.3-8.8c2.9-1.7,18.7,4.7,20,7.8c3.3,7.8,13.6,6.2,19.1,1.8c1.6-1.3,3.4-2.5,5.2-3.4c1.2-0.6,4-1.3,2.2-2.8
	c-2.5-2.1-9.7,1.3-12,2.4c-3.5,1.6-4.9,2.7-7-1c-1.8-3.1,0.1-2.7,3-3.4c3-0.7,9.6-2.7,9.4-6.6c-0.3-5.3,3.5-4.1,6.2-1.4
	c5.7,5.7,3.4-2.3,4.2-6.4c4.7-4.4,13.2-2.6,17.2-4.2c2.5-1,4.7-2.5,7.4-2c3.3,0.6,4.1,1.5,6.8,3.6c3.9,3.1,4.4,4.3,9,2
	c8.6-4.2,8.8-3.5,13.3,3.2c2.7,3.9-5.5,5.7-8.4,5.6c-1-0.1-3.2-0.7-3,1c0.7,7.6,15-0.3,18.8-0.4c1.8,1.2,3.4,2.7,5,4.2
	c11.1,10.4,6.7-0.3,20.2,7.6c16.2,9.6,10.8,3.9,24.1,2.4c6.6-0.7,6.8-5.1,6.8-11.5c0-9.2,10-6.5,15-13.8c1.6-2.3,3.3-0.2,5,1
	c3.2,2.1,3.8,3,6-0.2c1.1-1.7,4.8-5.6,5.2-7c-1.6-0.6-4.2,0.9-5.4,1.6c-4.9,2.9-3.4-4.6-12.6-0.6c-2,0.9-4.4,2.9-5.2,0
	c-1-3.6-5.3-7.1-8.2-9.2c-11.5-8.6-12.6-10.1-26.5-6.8c-5.8,1.4-1.7,13.5-14.8,15.6c-3,0.5-3.4,0.7-2.4-2.4
	c2.4-7.3,4.2-15.1,5.4-22.7c0.7-4.1,1.3-8.2,2-12.2c2.1-12-3.2-32.8-7.8-43.9c-1.4-3.4-10.1-21.4-13.2-22.2
	c-11.5-3.1-46,2.7-59.8,3.6c-1.6,0.1-3.2-8.8-3.6-10.4c-2.4-9.2-3.1-17.8-4.4-27.1c-1-6.8,10-9.6,4-17.9c-2.8-3.8-9.2,2.4-11.4-4
	c-2.4-6.6-4.3-1.9-5-6.2l-0.6-4c-0.4-2.4,0-2.3,2-3.8c4.5-3.5,1.4-8.2,0-13c-8.2-28.1-12.4-57.6-18.9-86.2c-1-4.3-4.3-11.3-0.4-14.6
	c3.7-3.1,1.2-8.1,0.2-12.2c-2.4-9.8-10-22.4-16.2-30.3c-7.2-9-7.4-12.4-18.7-13.8C266.6,31.5,259,30,257.6,31L257.6,31z"/>
<path fill-rule="evenodd" clip-rule="evenodd" fill="#FAA92B" d="M263.2,36.6c3.4,0,13.1,0.1,15.3,2.6c8,9.6,16.7,25.7,19.8,37.9
	c1.3,5.2,0.4,4.3-4.8,4.2c-2.9,0-5.8-0.1-8.6,0.4c-0.7,0.1-4,1.3-3.8-0.4c0.7-6.4-11.7-33.3-15.2-39.7
	C264.9,39.9,264,38.3,263.2,36.6L263.2,36.6z"/>
<path fill-rule="evenodd" clip-rule="evenodd" fill="#FAA92B" d="M306.9,205c0.8,2,2.2,11.2,2.4,13.6c-1.8,2.1-10.4,2.5-13,4.2
	c-4.3,2.8-2.9,12.9,0.2,16.2c1.7,1.8-2.3,12.3-3,15.4c-1.9,8.5-2.4,2-3.6-2.4c-4.3-16.1-9.1-32.1-12-48.5
	c-5.6-30.9-12.5-61.8-20.4-92.2c-1.9-7.2-2.6-15.8-0.8-23.1c2.5-10.3,2.9-21.3,3.4-31.9c0.1-2.6,0.3-5.2,0.6-7.8
	c17.1,37.1,26,75.3,34.5,115.1c2.3,10.9,4.9,21.7,6.6,32.7C302.9,204.1,301.2,203,306.9,205L306.9,205z"/>
<path fill-rule="evenodd" clip-rule="evenodd" fill="#618EAD" d="M295.7,99.1c5.4,30.5,12,61.3,20.4,91c0,0.2,1.3,4.7,1.2,5
	c-0.4,0.8-5.9,1.6-6.8,1.2c-0.3-0.1-1.3-3.7-1.5-4c-2.7-9.5-5-19.4-6.8-29.2c-1.9-10.4-4.5-20.6-7-30.9c-3.1-12.5-4.7-24.9-6-37.7
	c-0.3-3.3-1.2-4.7,2.6-4.6C295.2,90,295.3,96.8,295.7,99.1L295.7,99.1z"/>
<path fill-rule="evenodd" clip-rule="evenodd" fill="#FAA92B" d="M179.2,151.4c-0.9-3.4-1.7-6.8-2.4-10.2c-0.7-3-1.2-6.2-2.1-9.1
	c0,0-0.3-0.9-0.4-0.9c3.3,36,4,11.7-12.6,35.3c-1.5,2.1,1-10.8,1-11c0.7-4.8-0.1-9.3,3.8-11.2c0.8-1.6,3.1-17.8,3.4-20.5
	c0.1-1.2,0-3,0.8-3.9c1.5-2,13.9-4,16.3-4.5c6.5-1.3,58.3-13.6,59.7-12.4c0.8,0.7,1.9,8.7,2,9.6c1.3,8.5,0.4,7.1-7.4,10.6
	c-14.5,6.5-28.5,13.9-42.9,20.7c-1.2,0.6-2.5-11-2.8-12.6c-1.6-8.6-0.6-7.6,7.4-10.2c6.5-2.1,13-4.5,19.3-7.5c1.3-0.6,2.7-1.3,4-2.1
	c0.1-0.1,1.1-0.8,0.8-1c-0.1-0.1-0.3-0.1-0.3,0c-5.8,0.4-24.3,6.6-30.3,8.9c-9.6,3.6-7.1,2.5-5.2,15.2c1.9,12.7,3.6,10.3-6.4,14.8
	C182.9,150.1,181.1,150.9,179.2,151.4L179.2,151.4z"/>
<path fill-rule="evenodd" clip-rule="evenodd" fill="#618EAD" d="M156.9,138.2c0.4-2.9,1.8-13.7,2.6-15.6c0.6-1.3,4.8-2.8,5.6-1.2
	c0.2,0.4-0.9,6.2-1,6.8C163.3,132.1,163.2,140.8,156.9,138.2L156.9,138.2z"/>
<path fill-rule="evenodd" clip-rule="evenodd" fill="#FFFFFF" d="M194.4,179.5c-0.5-1.3,3.7-16.6,4.8-18c1.6-2.1,56-25.5,58.5-25.4
	c1.7,0,5,17.7,5.6,20.4c4.3,19.5,8,39,12,58.5c3,15,7.1,42.4,11.8,55.3c1.3,3.6,1.3,3.8,1,7.6c-0.6,5.9-3.7,4.5-9.2,5
	c-7.6,0.8-7.8-0.8-9.4,6.4c-1.7,7.5-2.9-11.8-8-12.8c-3.5-0.7-7.4-0.8-11-1.2c-11.8-1.4-22.8-1.3-34.7-0.2c-7.2,0.7-14.2,2-21.2,3.2
	c-2.3,0.4-5.9,2-6.2-1.2c-0.3-2.5,4.9-2.1,6.4-2.2c4.8-0.4,31.7-2.9,34.7-5.8c0.3-0.3-0.1-4.7-0.2-5.2c-1.2-13.4-3.3-26.7-5.3-40.1
	c-0.7-4.9-5.3-40.7-6.6-41.7C215.6,180.7,198.1,180.2,194.4,179.5L194.4,179.5z"/>
<path fill-rule="evenodd" clip-rule="evenodd" fill="#FAA92B" d="M134.5,238c-1.5-4.5-4.2-10.3-4.6-15c-0.6-6.6,17.5-79.5,21-84.4
	l0.3-0.2c0.4,0.6-0.5,7.5-0.6,8.4c-0.8,6.9-3.5,23.9-5.6,29.7C138.9,193.2,138.1,220.1,134.5,238L134.5,238z"/>
<path fill-rule="evenodd" clip-rule="evenodd" fill="#618EAD" d="M154.8,151.9c1.6,5.2,1.6,5.4,0.6,13.2c-0.8,4.2-1.4,9.4-1.8,11.8
	c-0.4,4.6-0.4,4.6-2.8,4.2c-3.2-0.6-3.4,1.2,0.4-19.7c2-11.8,2-11.6,2.4-11.6C153.9,149.8,154.3,150.6,154.8,151.9L154.8,151.9z"/>
<path fill-rule="evenodd" clip-rule="evenodd" fill="#FAA92B" d="M181,165.3c-3.5,10.5-8.5,20.6-11.5,31.3c-2,7.4-2.7,15.6-3.4,23.3
	c-0.8,8.3-2.6,16.5-3.6,24.9c-0.3,3-0.7,3.1-3.8,3c-1.7,0-9.2-1.3-10.2-2.6c1.5-13.5,2.2-33.6,7.2-45.7c2.7-6.5,12.3-28.4,17.5-32.5
	C174.3,166,179.4,165.5,181,165.3L181,165.3z"/>
<path fill-rule="evenodd" clip-rule="evenodd" fill="#618EAD" d="M192.6,166.9c-0.6,1.6-2.2,7.8-3.6,14c-1.8,8.6-1.4,8-3.8,7.2
	c-2.8-1.2-2.8-1.2-1.6-6c2.4-8,3.6-10.6,6-13.3C191.8,166.5,193,165.7,192.6,166.9L192.6,166.9z"/>
<path fill-rule="evenodd" clip-rule="evenodd" fill="#FAA92B" d="M214.7,185.3c0.8,0.4,1,0.8,1,2c0,1.6,0,1.6-4.4,1.6
	c-2.4,0-7.6,0.2-11.8,0.4c-8.7,0.4-8.4,0.6-6.8-4.4C192.8,184.3,212.5,184.5,214.7,185.3L214.7,185.3z"/>
<path fill-rule="evenodd" clip-rule="evenodd" fill="#618EAD" d="M150.3,193.8c0.4,0.2,0.6,0.6,0.6,1.2c-1.2,3.4-3.8,19.6-5,30.7
	c-2.4,19.4-2.4,19.2-5.2,16.2c-2-2.2-2-2.2-1.2-6.8c0.4-2.6,1.4-10,2.2-16.6c2.2-16.5,3.2-23.9,3.8-24.9
	C145.9,192.8,148.5,192.8,150.3,193.8L150.3,193.8z"/>
<path fill-rule="evenodd" clip-rule="evenodd" fill="#D6EFFB" d="M214.3,196.6c1.4,0.8,2.4,15.6,2.6,17.6c0.9,9.2,0.9,18.8,2.4,27.9
	c0.7,4,2.7,10.3-3,10.8c-2.6,0.2-22.2,0.1-22.8-1c-0.8-1.5-3.1-23.6-3.4-26.3c-0.7-5.8-5-28.9,5-29.5
	C197.3,196,213.1,195.9,214.3,196.6L214.3,196.6z"/>
<path fill-rule="evenodd" clip-rule="evenodd" fill="#618EAD" d="M185,199.4c2.2,1-1,11.5-1.4,13c-1.3,5-7.4,30-7.4,33.5
	c0,3.1-2.8-0.9-3.2-1.4c-1.5-2-1-3-0.6-5.4c1.4-8.8,4.9-32.1,7.6-39.3C180.8,197.7,183.6,198.7,185,199.4L185,199.4z"/>
<path fill-rule="evenodd" clip-rule="evenodd" fill="#618EAD" d="M316.1,204.4c0.9,1,2.4,7.3,1.2,8C313,215.1,313,200.5,316.1,204.4
	L316.1,204.4z"/>
<path fill-rule="evenodd" clip-rule="evenodd" fill="#FAA92B" d="M106.8,210c-6.6,3.8-13.6,4.9-19.7,10c-2.7,2.2-15.3-0.7-14.3-4
	l1-3.4c1.1-3.5,10.6-2.3,13.5-2.4C93.5,210.1,100.8,209.1,106.8,210L106.8,210z"/>
<path fill-rule="evenodd" clip-rule="evenodd" fill="#618EAD" d="M321.4,220.6c2.7,2.9,6.2,11.7,0.6,13c-2.2,0.5-1.9,0-1.4-1.8
	C321.5,227.9,315.4,214.4,321.4,220.6L321.4,220.6z"/>
<path fill-rule="evenodd" clip-rule="evenodd" fill="#618EAD" d="M335.6,223.8c0,2.2-2.8,5.4-4.4,4.8c-0.6-0.2-1.2-4.4-0.8-5
	C330.8,222.8,335.6,223,335.6,223.8L335.6,223.8z"/>
<path fill-rule="evenodd" clip-rule="evenodd" fill="#FAA92B" d="M67.5,226.6c9.6,3.2,9.2,2.6,12,19.7c2.6,16.2,3.2,21.8,2.6,22.2
	c-1,0.4-8.4-4.8-15.8-11c-5-4.2-5-4.2-5.2-18c0-7.4,0-13.8,0.2-14C61.7,224.8,62.7,225,67.5,226.6L67.5,226.6z"/>
<path fill-rule="evenodd" clip-rule="evenodd" fill="#618EAD" d="M312.9,227.6c1.2,3.4,0.8,3.8-4.6,3.8c-4.8,0-4.6,0.2-4.8-3.2
	c-0.2-2.6-0.2-2.6,2.6-3C311.9,224.8,311.9,224.8,312.9,227.6L312.9,227.6z"/>
<path fill-rule="evenodd" clip-rule="evenodd" fill="#FAA92B" d="M82.7,228.8c1.8-1.3,27.1-1.6,30.5-1.6c4.9,0,7.5-1.2,8.2,4.2
	c2.5,17.8-0.2,16-17.4,16.1C81.4,247.6,85.7,251.5,82.7,228.8L82.7,228.8z"/>
<path fill-rule="evenodd" clip-rule="evenodd" fill="#FAA92B" d="M190,259.7c11.2-0.1,22.4-0.5,33.5-0.6c1.7,0,1.3,2.1,1.4,3.4
	c0.2,5.7-4,4.5-8.8,5c-2.6,0.3-32.3,4.1-33.1,3.6l-0.1-0.1c-0.9-2.1,0.7-23.8,1.1-27.2c0.1-1.2,0.7-10,0.8-10.2
	C186.2,235,188.9,255.8,190,259.7L190,259.7z"/>
<path fill-rule="evenodd" clip-rule="evenodd" fill="#FAA92B" d="M332.8,276.1c-1.3,0.9-20.3,2.9-20.9,2.4
	c-0.9-0.8-2.8-23.6-3.2-27.3c-0.5-4.2-3.5-11.7,2-12.8c4.8-1,13.1,3.4,17.3-2.2c1.6-2.2,1,2,1,2.6c-0.5,6.4,0.4,13.4,1.6,19.6
	C331.6,264.3,332.4,270.2,332.8,276.1L332.8,276.1z"/>
<path fill-rule="evenodd" clip-rule="evenodd" fill="#FAA92B" d="M86.6,253.5c11.8-0.6,23.6-0.1,35.3-0.8c1.7-1.1,4.4,0.4,5.8,1.2
	c3.7,2,2.8,5.4,2.8,9.2c0,7,0.4,7.3-6.6,7.6c-6,0.2-11.9,0.7-17.9,1.2c-2.7,0.2-15.8,2-17.6-0.7c-0.9-1.3-0.8-3.9-0.9-5.5
	C87.3,261.7,86.6,257.5,86.6,253.5L86.6,253.5z"/>
<path fill-rule="evenodd" clip-rule="evenodd" fill="#FAA92B" d="M302.9,276.1c-1.1,0.6-5.7,0.4-7.2,0.4c0-6.9,2.1-14.5,3.4-21.2
	C299.4,255.9,302.9,275.1,302.9,276.1L302.9,276.1z"/>
<path fill-rule="evenodd" clip-rule="evenodd" fill="#618EAD" d="M143.3,256.7c4.6,0.6,4.6,0.7,3.6,5.2c-1.5,6.5,0,11.6-6.4,11.4
	c-6.9-0.2-2.3-11-4-16.4C136,255.4,142.6,256.6,143.3,256.7L143.3,256.7z"/>
<path fill-rule="evenodd" clip-rule="evenodd" fill="#618EAD" d="M177.4,259.5c0.8,2.2-2.2,12.2-4.2,14c-1.2,1-3.6-0.4-4-2.2
	c-0.4-3,0.8-10.4,2-12C171.8,258.5,177,258.7,177.4,259.5L177.4,259.5z"/>
<path fill-rule="evenodd" clip-rule="evenodd" fill="#FAA92B" d="M306.7,384.2c0.1-1.7,0.4-3.4,0.8-5c5-23.1,2.8-69.3-10.6-89.5
	c-2.2-3.3,10.3-5.1,12.9-5.4c26.6-3.6,62.9-7.6,87.8-9.3c1.5,0,3.6,3.7,4.2,4.6c5.2,7.8,19.4,39.6,13.5,48.3c-1.8,2.6-4,21-5.8,26.5
	c-2.7,8.5-11.2,12.6-18.4,16.9c-6.4,3.7-11.1,7.6-16.2,0.4c-4.8-6.7-7-6.6-13.6-1.8c-4.5,3.3-5,4.3-10.2,2
	c-13.2-5.7-16.7,8.2-19.2,8.2C325.9,380,313.9,383.4,306.7,384.2L306.7,384.2z"/>
<path fill-rule="evenodd" clip-rule="evenodd" fill="#FAA92B" d="M163.7,277.8c3.6,2,14.6-1.8,14.6,3.6c0,0.2-0.7,0.4-0.8,0.4
	c-3.2,1.1-6.9,1.4-10.1,1.9c-11.5,1.6-23.2,2.9-34.8,3.3c-0.6,0-11.4,1-8-1.2l3.8-2.6c3.9-2.7,4.8-2.2,9.7-2.4
	c3.4-0.1,7.2,0.3,9.8-2.2C149.4,277.2,161.7,276.6,163.7,277.8L163.7,277.8z"/>
<path fill-rule="evenodd" clip-rule="evenodd" fill="#748AA0" d="M249.6,279.2c-2.4,1-4.8,1.7-7.4,2c-15,2-35.3,10-48.9,16.4
	c-3.1,1.5-21.6,9.7-23.3,12.6c-3.2,5.9-5.5,18.8-5.8,25.5c-0.1,1.8,0.9,6.6-2,5.4c-2.4-1-25.5-6.8-26.5-6.2
	c-3.5,2.2,10.7,6.1,11.8,6.4c1.9,0.6,14.5,4.4,15.6,5.4c1.9,1.7-4-0.4-5.2-0.8c-3.6-1.1-7.2-2.2-10.8-3c-5.6-1.2-13.8-4-19.2-2.6
	c-1.2,0.3-1.2-5.5-1.2-6.3c-0.1-4.7,0.4-15.8,2.4-20l1.2-2.6c1.6-3.6,24.1-13.4,27.6-15.1c21.3-10.2,37.6-16.4,61.6-16.4
	c5.6,0,11.5,0.1,17.1-0.4C240.9,279.2,245.2,278.9,249.6,279.2L249.6,279.2z"/>
<path fill-rule="evenodd" clip-rule="evenodd" fill="#748AA0" d="M74.5,283.8c3.6,0.6,7,1.2,7.8,1.4c2.2,0.4,1.6,0.6-4.4,3.2
	c-5.2,2-11.6,5-26.9,12.2c-8.6,4.2-10.2,6.8-12.6,21.9c-1,6.6-0.8,6.4-2.6,5.6c-1.8-0.6-6.4-1.2-6.4-0.6c0,0.2,0.8,1,1.8,1.6
	c1,0.6,2,1.2,2,1.2c0.8,0.6-0.4,0.4-2.8,0c-3.2-0.8-10.6-1.2-10.6-0.8c0,0.6,8,3.4,13.8,5.2c2,0.6,3.8,1,4,1.2
	c0.6,0.6-1,0.6-7.6-0.8c-14-3-17-3.2-18-1.6c-0.6,1.4,0.2,2,2.8,2.6c4.2,0.8,7.6,2,7.6,2.2c0,0.2-0.4,0.4-1,0.2
	c-0.4-0.2-3.4-0.8-6.4-1.4c-6.6-1.4-6.4-1.2-6.4-7.4c0-13.6,1.8-21.2,6.4-27.5c2.6-3.4,1.6-2.8,15.4-7.2c10.4-3.2,17.2-5.4,29.9-10
	C67.1,282.4,66.5,282.4,74.5,283.8L74.5,283.8z"/>
<path fill-rule="evenodd" clip-rule="evenodd" fill="#748AA0" d="M255,284c5.2,4.9,3.6,29.5-2,27.3C247.8,309.2,247.6,277,255,284
	L255,284z"/>
<path fill-rule="evenodd" clip-rule="evenodd" fill="#748AA0" d="M238.1,287.2c0.5,2.3-1.2,11-5,9
	C227.3,293.1,236.7,280.4,238.1,287.2L238.1,287.2z"/>
<path fill-rule="evenodd" clip-rule="evenodd" fill="#FAA92B" d="M169.4,287.4c-3.7,2.2-7.9,3.7-11.8,5.6c-4.2,2-6.9,4.7-11.2,2.4
	c-2-1-4-1.6-6.2-2.2l-2-0.6c-5.2-1.6,4.2-1.7,5.2-1.8C145.6,290.6,169.3,287.3,169.4,287.4L169.4,287.4z"/>
<path fill-rule="evenodd" clip-rule="evenodd" fill="#748AA0" d="M227.5,290.2c2,2-0.9,10.4-4,10.4
	C219.8,300.6,222.4,285.2,227.5,290.2L227.5,290.2z"/>
<path fill-rule="evenodd" clip-rule="evenodd" fill="#FAA92B" d="M108.6,294c0.6,0.6,1,10.2,0.8,10.8c-0.4,0.6-2,0.6-10.6,0.8
	c-5.6,0-10.4,0.2-10.8,0.2c-1.2,0.2-1.2-10.5-0.2-11C89.4,294,108.2,293.2,108.6,294L108.6,294z"/>
<path fill-rule="evenodd" clip-rule="evenodd" fill="#748AA0" d="M216.1,295.2c1.9,2.9,0.9,9.6-3.4,9.6
	C206.8,304.8,212.3,289.3,216.1,295.2L216.1,295.2z"/>
<path fill-rule="evenodd" clip-rule="evenodd" fill="#FAA92B" d="M270.2,307.8c3.2,9.4,5.7,19.1,8.2,28.7c1.6,6.1,3.4,12.1,5.4,18.1
	c1.6,4.7,3.1,9.5,4.8,14.2c0.5,1.5,1.2,3.3,1.8,4.8l0.4,0.9c0,0.1,0.1,0.4,0.2,0.3c0.9-0.8-3.4-19.2-3.8-21.1
	c-3.6-15.7-6-31.6-8.7-47.5c-0.3-1.9-2.8-10.5-0.4-11.6c4-1.8,6.9-0.6,9.6,2.6c15.9,18.7,17.9,55.2,12.8,78.2
	c-2.3,10.4-1.2,12.7-11.6,15.3c-1.7,0.4-5.2,2.1-6.2,0c-2.9-6-5-19.3-6.6-25.9c-3-12.1-6.2-24.2-9.8-36.1
	C264.8,323.3,267,312.5,270.2,307.8L270.2,307.8z"/>
<path fill-rule="evenodd" clip-rule="evenodd" fill="#FAA92B" d="M121.3,295.4c3.5,0.6,14.9,3.4,17.5,5.7c0.8,0.8-0.1,0.9-0.7,1.1
	c-1.3,0.3-3.2,1.3-4.4,2c-2.7,1.5-6,4.6-9.2,3.4c-6.5-2.3-10.8,1.6-10.8-7C113.6,292.4,113,294,121.3,295.4L121.3,295.4z"/>
<path fill-rule="evenodd" clip-rule="evenodd" fill="#748AA0" d="M204.4,300c2.8,2.8,0.9,11.4-3,10.8C196,310,198.8,294.3,204.4,300
	L204.4,300z"/>
<path fill-rule="evenodd" clip-rule="evenodd" fill="#FAA92B" d="M242.5,316.3c-4.4,2.5-8.3,5.1-12.4,8c-3.3,2.3-4.2,3.8-4.6-1
	c-0.4-5-2-9.9-2-14.8c0.9-1,14.8-7.6,17.2-8.8C242,300.5,243,314.4,242.5,316.3L242.5,316.3z"/>
<path fill-rule="evenodd" clip-rule="evenodd" fill="#748AA0" d="M81.9,325.1c-0.4,2.5-23.9,11.3-27.6,12.8c-6.2,2.6-4.5-0.3-4-6
	c1-13,9.1-25,21.6-29.5c3.8-1.3,2.8,1,2.8,4.2C74.8,317.5,77.3,317.2,81.9,325.1L81.9,325.1z"/>
<path fill-rule="evenodd" clip-rule="evenodd" fill="#748AA0" d="M185.6,308.8c5.4,3.2,8,21.2,4.6,34.1c-1.6,6.4-6.2,13.4-10.2,15.4
	c-3.4,1.6-3.6,1.2-5.6-6C168.4,331.3,175.8,302.8,185.6,308.8L185.6,308.8z"/>
<path fill-rule="evenodd" clip-rule="evenodd" fill="#FAA92B" d="M199.8,342.3c-0.7-5.5-0.1-11.1-1.2-16.6c-1.1-5.7-2.8-6.6,2.8-8.6
	c5.5-1.9,11.2-3.9,16.4-6.4c5.3-2.5,3.8,2.2,4,6.6c0.1,1.9,1.1,10.9,0,12C220.1,331.1,203.5,340.3,199.8,342.3L199.8,342.3z"/>
<path fill-rule="evenodd" clip-rule="evenodd" fill="#956838" d="M253.6,365.2c-0.3,0.6-0.7,1.1-1,1.6c-6.2,9,14.3-10.3,16.4-0.4
	c0.6,2.6,3.4,9.5,2,11.2c-1,1.3-1.9,2.6-2.8,4c-1.4,2.1-4.2,6.2-6.5,7.4c-0.6,0.3-1.1,0.2-1.1-0.6c0-2.2-6-4.4-7.8-4.4
	c-1.9,0-10,13-14.8,13c-2.9,0-7.4-14.5-14.2-17.1c-3.6-1.3-5.1-1.3-1.8-4.4c7.7-7.2,24.2,7.4,17.4-0.6c-2.5-3-4.5-4.1-4.4-8
	c0.1-6-4-5.3,1.4-9.6C241.2,353.4,248.8,362.5,253.6,365.2L253.6,365.2z"/>
<path fill-rule="evenodd" clip-rule="evenodd" fill="#956838" d="M445.2,364c2,1.6,6.1,4.5,6.4,7.2c0.3,2.2,1.9,2.4,3.8,3.2
	c3.5,1.5,1.9,2.4-0.2,5c-1.5,1.9-2.9,3.8-4.2,5.8c-1.1,1.7-1.6,3.6-2.8,1.2c-1.6-3.4-9.6-0.5-12,0.2c-6,1.7-12.6,5.2-18.7,2.6
	c-3.9-1.7-4.3-1.1-3.6-5.2c0.7-4.3,1.2-3.6,5.4-4.8c14.4-4.1,7.8-15.1,18.7-16.8C442.1,361.7,442,361.4,445.2,364L445.2,364z"/>
<path fill-rule="evenodd" clip-rule="evenodd" fill="#FFFFFF" d="M449.7,400.3c0,5.3-16.6,1.9-10.6,1.2c3.1-0.3,6.3-0.9,9.2-2
	C449.1,399.1,449.7,399.2,449.7,400.3L449.7,400.3z"/>
<path fill-rule="evenodd" clip-rule="evenodd" fill="#231F20" d="M263.8,88.3c0,0,11.3,41,12.4,44.7c3.6,11.6,7.1,23.3,8.8,35.3
	c0.3,1.9,0.1,7,3.2,5.6c6-2.7-5.6-37.8-6.8-41.9c-5.1-16.6-9.9-33.4-13.3-50.5C264.5,63,258,99,257.8,102.3
	c-0.2,3.4,1.2-0.3,1.4-0.8C260.8,97.2,262.1,92.6,263.8,88.3L263.8,88.3z"/>
<path fill-rule="evenodd" clip-rule="evenodd" fill="#F7D9A9" d="M350.7,282.1l44.2-4.8c9.5,15.4,14.8,28.8,16.9,45.4
	c-7.6-15-14.1-23.3-22.1-32.2l3.7,30.5l-16.2-28.7l-2.9,25.5L363,294.2l-3.6,18L350.7,282.1L350.7,282.1z"/>
<polygon fill-rule="evenodd" clip-rule="evenodd" fill="#B26E32" points="332.7,376.8 312.9,379.5 317,339.6 321.9,365.3 
	330.9,353.5 329.9,365.3 338.9,356.3 332.7,376.8 "/>
<polygon fill-rule="evenodd" clip-rule="evenodd" fill="#D4DFE7" points="133.7,310.3 166.5,311.5 161.4,336.1 158.7,320.4 
	151,330.4 148.7,318.6 142.3,326 140.3,316.4 134.6,324.4 133.7,310.3 "/>
<polygon fill-rule="evenodd" clip-rule="evenodd" fill="#D4DFE7" points="17.8,302.2 40,305.7 35.8,322.7 32.9,311.6 26.3,317.8 
	26.4,309 20.5,314.9 20.2,307.4 14.7,311.7 17.8,302.2 "/>
<polygon fill-rule="evenodd" clip-rule="evenodd" fill="#FBD8A0" points="160.3,244.9 151,243.8 154.9,211.4 158.1,218.1 
	166.3,203.3 160.3,244.9 "/>
<path fill-rule="evenodd" clip-rule="evenodd" fill="#F6F8F9" d="M194,199.2l18.8,0.5c0,0,5.8,47.5,5,46.3
	c-0.8-1.3-6.9-24.6-6.9-24.6l-3.8,9.1l-1.7-14.2l-4.1,7.7l-2.4-14.9l-2.7,8.3L194,199.2L194,199.2z"/>
<polygon fill-rule="evenodd" clip-rule="evenodd" fill="#BC7D37" points="291.4,247.8 272,162.2 287.2,211.4 287.9,189.2 
	293.5,208.3 295.6,195.1 302.1,215.9 291.4,224.6 291.4,247.8 "/>
<polygon fill-rule="evenodd" clip-rule="evenodd" fill="#B56931" points="245.3,118.9 243.8,106.3 233.2,108.8 240.1,110.3 
	221.1,120.2 233.6,119.2 205.7,137.3 245.3,118.9 "/>
<polygon fill-rule="evenodd" clip-rule="evenodd" fill="#B56931" points="296.8,78.8 285,79.9 271.5,47.6 286.2,69.5 285.9,58.2 
	290.4,66.5 292.1,63.4 296.8,78.8 "/>
<polygon fill-rule="evenodd" clip-rule="evenodd" fill="#F5DDBD" points="62.7,227.3 71.7,231.1 65.7,233.4 68.3,238.8 64.8,239.2 
	65,244.2 63.2,244.8 62.7,227.3 "/>
<polygon fill-rule="evenodd" clip-rule="evenodd" fill="#B56931" points="90.4,270.8 89.2,258.7 117.4,257.2 96.1,263.1 
	107.9,264.8 96.6,267.8 103.2,269.7 90.4,270.8 "/>
</svg>
