<?xml version="1.0" encoding="utf-8"?>
<!-- Generator: Adobe Illustrator 18.1.1, SVG Export Plug-In . SVG Version: 6.00 Build 0)  -->
<svg version="1.1" id="Layer_1" xmlns="http://www.w3.org/2000/svg" xmlns:xlink="http://www.w3.org/1999/xlink" x="0px" y="0px"
	 viewBox="0 0 621 179" enable-background="new 0 0 621 179" xml:space="preserve">
<g>
	<polygon fill-rule="evenodd" clip-rule="evenodd" fill="#263B80" points="110.6,35.5 152.8,35.5 117.7,128.9 75.4,128.9 
		110.6,35.5 	"/>
	<polygon fill-rule="evenodd" clip-rule="evenodd" fill="#263B80" points="220.7,35.5 254.7,92 275.8,35.5 316.5,35.5 281.5,128.9 
		241.8,128.9 206.4,73.5 185.7,128.9 143.4,128.9 178.6,35.5 220.7,35.5 	"/>
	<path fill-rule="evenodd" clip-rule="evenodd" fill="#263B80" d="M380.8,56.9c18.3-0.9,50.4-3.4,49.6,17.8
		c-0.2,6.6-7.4,26.4-30,30.4c-9.4,1.7-22.3,2-38.3,1.5L380.8,56.9L380.8,56.9z M388.9,35.5c33.9-1.7,61,3,70.1,11.8
		c7.7,7.5,12.4,10.9,12.4,28.2c0,11.8-5.6,22.5-14.6,30.2c-9,7.6-27.8,26.1-102.9,23.3l-42.3,0l35.2-93.5H388.9L388.9,35.5z"/>
	<path fill-rule="evenodd" clip-rule="evenodd" fill="#263B80" d="M74.5,131.4c140.3,0,277.7,0,417,0c11.2,0,17.8-9.3,15.2-17.7
		l-24.7-79.3h43.9l13.5,51.8l37.7-52h39.4c-24.5,36.8-43,63.7-75.3,101.8c-7.1,8.4-24.5,27.5-50.8,27.5H480H62.9L74.5,131.4
		L74.5,131.4z"/>
	<polygon fill-rule="evenodd" clip-rule="evenodd" fill="#263B80" points="102.3,32.6 81.2,57.3 65.2,51 57.7,92.1 42.9,69.8 
		37.3,85.1 19.4,80.6 18.9,95.1 4,103.1 30,126.8 20.1,138 58.2,133.7 46.5,165.6 53.7,165.6 102.3,32.6 	"/>
	<polygon fill="#263B80" points="19.4,80.6 69.3,57.8 65.2,51 96.2,37.2 99.5,33.3 100.1,32.8 144,12.9 143.9,21.4 140.4,22.6 
		140.4,18.4 101.8,35.8 98.5,39.7 97.9,40.1 70.1,52.5 74.1,59.3 20.9,83.7 19.4,80.6 	"/>
	<polygon fill="#263B80" points="115.4,126.4 154.9,90.6 179.6,22.8 149.1,40 147.4,37 176.4,20.7 151.8,20.7 112,38.6 110.6,35.5 
		150.7,17.4 151.4,17.3 185.3,17.3 158,92.2 157.5,92.9 117.7,129 115.4,126.4 	"/>
	<polygon fill="#263B80" points="182.3,126.7 206.3,93.6 212.4,81.5 216.2,83.4 210,95.7 209.9,96 185.8,129.3 182.3,126.7 	"/>
	<polygon fill="#263B80" points="223.7,97.2 208.1,96.9 208.2,92.6 223.8,92.9 223.7,97.2 	"/>
	<polygon fill="#554F89" points="238.6,19.7 219.9,38.4 217.5,36 236.1,17.3 238.6,19.7 	"/>
	<path fill="#263B80" d="M178,35.3l27.8-18.8l1-0.3h30.7h1l0.5,0.9l26.4,46L283,16.3c11.6,0,21.9,0,33.5,0l0,1.5l0.1,17.7h-3.4l0-16
		h-27.7L266,71l-29.5-51.4h-29.2L180,38.1L178,35.3L178,35.3z"/>
	<path fill="#263B80" d="M311.6,128.8c0.6-9.6,0.1-31.6,0-34.5l0-0.3l0.1-0.6l26.4-76.3l0.4-1.2h1.2h53.8l0.1,0
		c27.1,2.3,37.8,10.7,57,25.6l1.9,1.5l-2.1,2.7l-1.9-1.5c-18.6-14.5-29-22.6-55-24.8h-50.7l8.2,18.3l-3.1,1.4L340,21.9L315,94.2l0,0
		c0.1,2.9,0.6,25.1,0,34.8L311.6,128.8L311.6,128.8z"/>
	<polygon fill="#263B80" points="292.6,93.6 314.4,93.6 314.4,97.1 292.6,97.1 292.6,93.6 	"/>
	<polygon fill="#263B80" points="51.6,162.4 71.8,145 74,133 74.6,132 83.2,124.6 85.4,127.2 77.3,134.2 75,146.2 74.5,147.2 
		53.8,165 51.6,162.4 	"/>
	<path fill="#ED1C24" d="M110.6,150.6v-4h21v10.3h-9.9l-0.6-1.8c-3.3,1.5-7.9,2.3-13.8,2.3c-4.8,0-8.9-0.4-12.3-1.3
		c-3.4-0.8-6-2-7.8-3.4c-1.8-1.4-2.6-3.1-2.6-4.8c0-1.4,0.5-2.7,1.5-3.9c1-1.2,2.5-2.3,4.5-3.2c2-0.9,4.6-1.7,7.6-2.2
		c3.1-0.5,6.7-0.8,10.7-0.8c2.9,0,5.6,0.2,8.1,0.5c2.5,0.3,4.7,0.8,6.6,1.3c1.9,0.6,3.5,1.3,4.8,2.2c1.3,0.9,2.1,1.8,2.5,2.9h-14.5
		c-0.4-0.7-1.3-1.2-2.6-1.7c-1.3-0.4-3-0.7-5.2-0.7c-2.8,0-4.9,0.5-6.5,1.4c-1.6,0.9-2.4,2.3-2.4,4.1c0,1,0.3,1.8,0.9,2.6
		c0.6,0.8,1.6,1.4,3.1,1.8c1.4,0.5,3.4,0.7,5.8,0.7c1.7,0,3.4-0.2,4.9-0.6c1.5-0.4,2.5-0.9,2.9-1.6H110.6L110.6,150.6z M159.1,142.5
		v3.7h6.4c2.7,0,4.5-0.2,5.4-0.5c0.9-0.3,1.4-0.8,1.4-1.3c0-0.6-0.6-1.1-1.7-1.4c-1.1-0.3-2.5-0.5-4.3-0.5H159.1L159.1,142.5z
		 M143.9,138.1h22.5c5.5,0,9.7,0.2,12.7,0.7c2.9,0.5,4.9,1.1,5.9,1.9c1,0.8,1.5,1.7,1.5,2.7c0,1.3-0.7,2.3-2.2,3
		c-1.5,0.8-3.3,1.3-5.6,1.5c2.1,0.4,3.7,0.6,4.6,0.9c0.9,0.2,1.7,0.7,2.3,1.3c0.6,0.6,0.9,1.6,0.9,2.8v1.5c0,0.7,0.1,1.1,0.4,1.4
		c0.2,0.3,0.7,0.4,1.3,0.4v0.5h-15.4c-0.4-0.5-0.6-1.1-0.7-1.8c-0.1-0.7-0.1-1.4-0.2-2c-0.1-0.7-0.3-1.2-0.7-1.6
		c-0.4-0.4-1.1-0.7-2.2-0.8c-1.6-0.2-4.2-0.3-7.7-0.3h-2.3v6.5h-15.2V138.1L143.9,138.1z M211.8,138.1h15.5l16.7,18.7h-15.2
		l-1.9-2.5h-15.1l-1.8,2.5h-14.8L211.8,138.1L211.8,138.1z M214.7,150.4h9.6l-4.9-6.7L214.7,150.4L214.7,150.4z M252.6,138.1h22.3
		c3.4,0,6.3,0.1,8.8,0.4c2.5,0.3,4.6,0.7,6.2,1.3c1.6,0.6,2.9,1.2,3.7,2.1c0.8,0.8,1.2,1.8,1.2,2.8c0,0.9-0.4,1.7-1,2.4
		c-0.7,0.7-1.7,1.4-3.2,2c-1.5,0.6-3.4,1-5.9,1.4c-2.5,0.3-5.5,0.5-9,0.5h-7.8v5.8h-15.2V138.1L252.6,138.1z M267.8,142.5v4.2h6.6
		c1.7,0,3.1-0.2,4.2-0.5c1.1-0.3,1.7-0.9,1.7-1.7c0-1.3-2.6-2-7.9-2H267.8L267.8,142.5z M304.2,138.1h15.3v6.3H334v-6.3h15.3v18.7
		H334v-7.2h-14.5v7.2h-15.3V138.1L304.2,138.1z M362.7,138.1H378v18.7h-15.3V138.1L362.7,138.1z M420.8,145.3
		c-0.2-0.8-0.8-1.5-1.8-2c-1-0.5-2-0.8-3.2-0.9c-1.1-0.1-2.2-0.2-3.2-0.2c-3.1,0-5.3,0.5-6.7,1.6c-1.4,1-2,2.3-2,3.9
		c0,3.4,3,5.1,9,5.2c4.5,0,7.2-1.1,8-3.2h14.7c-0.4,1.5-1.5,2.8-3.4,4c-1.8,1.2-4.4,2.1-7.6,2.8c-3.2,0.7-6.9,1-11.1,1
		c-3.8,0-7.2-0.2-10.2-0.7c-3.1-0.5-5.7-1.1-7.8-1.9c-2.2-0.8-3.8-1.9-5-3.1c-1.2-1.2-1.8-2.5-1.8-4c0-1.7,0.7-3.2,2.1-4.5
		c1.4-1.3,3.2-2.3,5.5-3.1c2.3-0.8,4.8-1.4,7.5-1.8c2.7-0.4,5.5-0.6,8.3-0.6c8.2,0.1,14,0.8,17.3,2.3c3.3,1.5,5.3,3.2,6,5.4H420.8
		L420.8,145.3z M470.4,143.5c-0.4-1.1-2.5-1.6-6.3-1.6c-3,0-4.6,0.3-4.7,1c0,0.3,0.3,0.6,1,0.8c0.6,0.2,1.5,0.4,2.6,0.6
		c1.1,0.2,2.3,0.3,3.6,0.4c1.3,0.1,2.6,0.2,3.7,0.4c3.6,0.4,6.5,0.8,8.8,1.2c2.3,0.5,4.1,1.1,5.3,1.8c1.2,0.7,1.8,1.6,1.8,2.7
		c0,1.5-1,2.8-3.1,3.7c-2,1-4.7,1.7-7.9,2.1c-3.3,0.4-6.8,0.6-10.6,0.6c-3.7,0-7.2-0.3-10.2-0.8c-3.1-0.5-5.6-1.3-7.4-2.2
		c-1.9-1-2.9-2.1-3.1-3.3h14.7c0.3,0.7,1.2,1.2,2.6,1.5c1.4,0.3,2.9,0.5,4.6,0.5c3.8-0.1,5.7-0.5,5.9-1.3c0-0.5-0.7-0.9-2.2-1.2
		c-1.4-0.3-3.7-0.6-6.9-0.9c-2.9-0.3-5.3-0.6-7.3-0.8c-1.9-0.3-3.7-0.6-5.3-1.1c-1.6-0.5-2.8-1-3.7-1.8c-0.9-0.7-1.3-1.6-1.3-2.6
		c0.1-1.1,0.9-2.1,2.5-2.9c1.6-0.9,3.9-1.5,7-2c3-0.5,6.7-0.7,10.9-0.7c2.4,0,4.7,0.1,6.9,0.3c2.2,0.2,4.2,0.5,6,1
		c1.8,0.5,3.3,1.1,4.5,1.8c1.2,0.8,2,1.7,2.4,2.8H470.4L470.4,143.5z"/>
	<path fill="#263B80" d="M409.9,52.6c-2.7,8.7-8.1,15-14.7,19c-7.4,4.4-16.2,5.9-24.4,4.6l0.5-3.4c7.4,1.2,15.4-0.2,22.1-4.2
		c5.9-3.6,10.7-9.2,13.2-17.1L409.9,52.6L409.9,52.6z"/>
	<polygon fill="#263B80" points="464.6,70 448.7,18.3 448.1,16.1 450.4,16.1 481.8,16.1 482.5,16.2 525.8,34.3 524.5,37.4 
		481.5,19.5 457.6,19.5 489.1,37 487.4,40 453.1,20.9 467.9,69 464.6,70 	"/>
	<polygon fill="#263B80" points="614.1,36.7 555.9,19.2 532,19.2 580.5,35.4 578.3,37.9 522.6,18.9 524.7,16.3 557.8,16.3 558,16.3 
		616.7,34.2 614.1,36.7 	"/>
	<polygon fill="#263B80" points="527,19.1 515.3,32.4 512.8,30.1 524.4,16.8 527,19.1 	"/>
</g>
</svg>
