<?xml version="1.0" encoding="utf-8"?>
<!-- Generator: Adobe Illustrator 18.0.0, SVG Export Plug-In . SVG Version: 6.00 Build 0)  -->
<!DOCTYPE svg PUBLIC "-//W3C//DTD SVG 1.1//EN" "http://www.w3.org/Graphics/SVG/1.1/DTD/svg11.dtd">
<svg version="1.1" id="Arrow_1_" xmlns="http://www.w3.org/2000/svg" xmlns:xlink="http://www.w3.org/1999/xlink" x="0px" y="0px"
	 width="500px" height="500px" viewBox="0 0 500 500" enable-background="new 0 0 500 500" xml:space="preserve">
  <metadata>
    <?xpacket begin="﻿" id="W5M0MpCehiHzreSzNTczkc9d"?>
    <x:xmpmeta xmlns:x="adobe:ns:meta/" x:xmptk="Adobe XMP Core 5.6-c011 79.156380, 2014/06/19-23:40:37        ">
     <rdf:RDF xmlns:rdf="http://www.w3.org/1999/02/22-rdf-syntax-ns#">
      <rdf:Description rdf:about=""
        xmlns:xmpMM="http://ns.adobe.com/xap/1.0/mm/"
        xmlns:stEvt="http://ns.adobe.com/xap/1.0/sType/ResourceEvent#"
        xmlns:xmp="http://ns.adobe.com/xap/1.0/"
        xmlns:xmpRights="http://ns.adobe.com/xap/1.0/rights/"
        xmlns:dc="http://purl.org/dc/elements/1.1/"
       xmpMM:DocumentID="xmp.did:f512ad50b460f1e0adba1874cc3a213f"
       xmpMM:OriginalDocumentID="xmp.did:f512ad50b460f1e0adba1874cc3a213f"
       xmpMM:InstanceID="xmp.iid:f512ad50b460f1e0adba1874cc3a213f"
       xmp:ModifyDate="2015-04-16T12:30:32+02:00"
       xmp:MetadataDate="2015-04-16T12:30:32+02:00"
       xmpRights:Marked="True"
       xmpRights:WebStatement="http://www.adobe.com/legal/general-terms.html">
       <xmpMM:History>
        <rdf:Seq>
         <rdf:li
          stEvt:action="saved"
          stEvt:instanceID="xmp.iid:f512ad50b460f1e0adba1874cc3a213f"
          stEvt:when="2015-04-16T12:30:32+02:00"/>
        </rdf:Seq>
       </xmpMM:History>
       <xmpRights:UsageTerms>
        <rdf:Alt>
         <rdf:li xml:lang="x-default">This work is licensed under the Adobe General Terms of Use http://www.adobe.com/legal/general-terms.html.</rdf:li>
        </rdf:Alt>
       </xmpRights:UsageTerms>
       <dc:publisher>
        <rdf:Bag>
         <rdf:li>Adobe Systems Incorporated</rdf:li>
        </rdf:Bag>
       </dc:publisher>
      </rdf:Description>
     </rdf:RDF>
    </x:xmpmeta>
    <?xpacket end="r"?>
  </metadata>
<g id="_x37_35-phone_x40_2x.png">
	<g>
		<path d="M499.2,408.7c-4-26.1-28.3-54.5-70.3-82.2c-60.3-39.7-77.2-29.2-99.9-8.7c-1.8,1.7-3.7,3.4-5.8,5.1l-0.7,0.7
			c-2.5,2.7-11.5,10.4-19,10.7c-2.8,0.1-5.1-0.9-7.5-3.1c-17.7-16.7-63.1-60.4-64.9-62.1l0.1-0.1c0,0-42.6-46.1-60.1-63.6
			c-2.9-3-3.1-5.2-3-6.7c0.5-6.1,8.2-13,10.8-14.9l0.8-0.7c2.3-2.1,4.6-4,6.8-5.9c23.9-20,35.5-36.7-5.4-100
			c-33.4-51.8-54.1-72.5-76.2-76.5C91.4-1.8,77.9,2.4,61.6,14.3C33.3,33.8,5.3,56,0.8,93.1C-5.7,147.3,39.5,225,148.7,346l0.9,0.9
			C253.6,451.1,331,500,392.1,500c2,0,4-0.1,6-0.2c43.7-2.4,71.7-30.6,91-54.9C497.8,434.7,501.3,422.1,499.2,408.7z M475.1,434.3
			c-25.8,32.3-49.1,46.8-78,48.3c-55.8,3-132.5-45.3-234.7-147.6C58.4,219.7,12.7,143.4,18.5,95.1C21.8,67.8,40.6,50,72.1,28.2
			c12.1-8.8,21.3-12.1,29.8-10.6c15.9,2.9,35.1,23.4,64.3,68.7c35.7,55.3,25.6,63.8,8.8,77.8c-2.3,1.9-4.7,3.9-7,6
			c-3,2.3-16.3,12.9-17.5,27c-0.6,7.3,2.1,14.3,8,20.2c17.2,17.2,59.9,63.7,60.1,63.9l-0.1,0.1c0,0,47.1,45.1,65.2,62.1
			c5.8,5.4,12.8,8.1,20.5,8c15.6-0.5,28.6-13.2,31.3-16c2-1.7,3.9-3.4,5.7-5.1c17.4-15.7,26.1-23.6,77.7,10.4
			c37.2,24.5,59.5,49.5,62.7,70.4C482.9,419.8,480.8,427.5,475.1,434.3z"/>
	</g>
</g>
</svg>
